<?xml version="1.0" encoding="UTF-8"?>
<!DOCTYPE svg PUBLIC "-//W3C//DTD SVG 1.1//EN" "http://www.w3.org/Graphics/SVG/1.1/DTD/svg11.dtd">
<!-- Creator: CorelDRAW 2017 -->
<svg xmlns="http://www.w3.org/2000/svg" xml:space="preserve" width="46px" height="40px" version="1.1" style="shape-rendering:geometricPrecision; text-rendering:geometricPrecision; image-rendering:optimizeQuality; fill-rule:evenodd; clip-rule:evenodd"
viewBox="0 0 16.67 14.43"
 xmlns:xlink="http://www.w3.org/1999/xlink">
 <defs>
  <style type="text/css">
   <![CDATA[
    .fil1 {fill:#DB3544}
    .fil0 {fill:#FEFEFE;fill-rule:nonzero}
   ]]>
  </style>
 </defs>
 <g id="Layer_x0020_1">
  <metadata id="CorelCorpID_0Corel-Layer"/>
  <g id="_579273888">
   <path class="fil0" d="M6.37 0l5.37 0c0.27,0 0.51,0.11 0.68,0.28 0.18,0.18 0.28,0.42 0.28,0.68l0 12.51c0,0.26 -0.1,0.5 -0.28,0.68 -0.17,0.17 -0.41,0.28 -0.68,0.28l-5.37 0c-0.26,0 -0.5,-0.11 -0.68,-0.28 -0.17,-0.18 -0.28,-0.42 -0.28,-0.68l0 -12.51c0,-0.26 0.11,-0.5 0.28,-0.68 0.18,-0.17 0.42,-0.28 0.68,-0.28zm2.69 13.08c-0.24,0 -0.44,0.2 -0.44,0.44 0,0.24 0.2,0.43 0.44,0.43 0.24,0 0.43,-0.19 0.43,-0.43 0,-0.24 -0.19,-0.44 -0.43,-0.44zm2.2 -12.57c0,0.18 -0.15,0.33 -0.33,0.33l-3.75 0c-0.18,0 -0.32,-0.15 -0.32,-0.33l-0.49 0c-0.12,0 -0.23,0.05 -0.32,0.14 -0.08,0.08 -0.13,0.19 -0.13,0.31l0 11.83 6.27 0 0 -11.83c0,-0.12 -0.05,-0.23 -0.13,-0.31 -0.08,-0.09 -0.2,-0.14 -0.32,-0.14l-0.48 0z"/>
   <path class="fil1" d="M12.72 3c2.37,0.77 3.95,2.14 3.95,3.71 0,2.41 -3.77,4.37 -8.42,4.37 -4.07,0 -7.47,-1.5 -8.25,-3.49 1.11,1.61 4.07,2.76 7.55,2.76 4.43,0 8.02,-1.87 8.02,-4.16 0,-1.28 -1.11,-2.43 -2.85,-3.19z"/>
  </g>
 </g>
</svg>
